<svg width="45" height="45" viewBox="0 0 45 45" fill="none" xmlns="http://www.w3.org/2000/svg">
<g clip-path="url(#clip0_41_121)">
<path d="M22.5 0C16.534 0 10.807 2.37199 6.5918 6.59004C2.37221 10.8098 0.00116884 16.5325 0 22.5C0 28.465 2.37305 34.1919 6.5918 38.41C10.807 42.628 16.534 45 22.5 45C28.466 45 34.193 42.628 38.4082 38.41C42.627 34.1919 45 28.465 45 22.5C45 16.535 42.627 10.8081 38.4082 6.59004C34.193 2.37199 28.466 0 22.5 0Z" fill="url(#paint0_linear_41_121)"/>
<path d="M10.1848 22.2623C16.745 19.4048 21.1184 17.5208 23.3051 16.6106C29.5559 14.0115 30.8532 13.5601 31.7005 13.5448C31.8868 13.5418 32.3016 13.5879 32.5723 13.8067C32.7973 13.9913 32.8606 14.2409 32.8922 14.4162C32.9204 14.5912 32.959 14.9903 32.9274 15.3017C32.5899 18.8596 31.1239 27.4932 30.3786 31.4782C30.0657 33.1643 29.4434 33.7296 28.8422 33.7848C27.5344 33.905 26.543 32.9214 25.2774 32.092C23.2981 30.7937 22.1801 29.9858 20.2571 28.7191C18.0352 27.2552 19.4766 26.4505 20.7423 25.1356C21.0727 24.7915 26.8313 19.5549 26.9403 19.08C26.9544 19.0206 26.9684 18.7991 26.8348 18.6824C26.7048 18.5653 26.5114 18.6054 26.3708 18.637C26.1704 18.682 23.0098 20.7731 16.8786 24.9099C15.9821 25.5266 15.17 25.8272 14.4387 25.8114C13.6372 25.7941 12.0903 25.3571 10.9407 24.9838C9.53444 24.5257 8.41295 24.2835 8.51139 23.5055C8.56061 23.1005 9.11959 22.686 10.1848 22.2623Z" fill="white"/>
</g>
<defs>
<linearGradient id="paint0_linear_41_121" x1="2250" y1="0" x2="2250" y2="4500" gradientUnits="userSpaceOnUse">
<stop stop-color="#2AABEE"/>
<stop offset="1" stop-color="#229ED9"/>
</linearGradient>
<clipPath id="clip0_41_121">
<rect width="45" height="45" fill="white"/>
</clipPath>
</defs>
</svg>
