<svg width="45" height="45" viewBox="0 0 45 45" fill="none" xmlns="http://www.w3.org/2000/svg">
<g clip-path="url(#clip0_41_124)">
<circle cx="22.5" cy="23.5" r="18.5" fill="white"/>
<path d="M22.4999 0.900024C10.5704 0.900024 0.899902 10.5705 0.899902 22.5C0.899902 34.4295 10.5704 44.1 22.4999 44.1C34.4294 44.1 44.0999 34.4295 44.0999 22.5C44.0999 10.5705 34.4294 0.900024 22.4999 0.900024ZM30.8069 25.2698C30.8069 25.2698 32.7172 27.1553 33.1874 28.0305C33.2009 28.0485 33.2077 28.0665 33.2122 28.0755C33.4034 28.3973 33.4484 28.647 33.3539 28.8338C33.1964 29.1443 32.6564 29.2973 32.4719 29.3108H29.0969C28.8629 29.3108 28.3724 29.25 27.7784 28.8405C27.3217 28.521 26.8717 27.9968 26.4329 27.486C25.7782 26.7255 25.2112 26.0685 24.6397 26.0685C24.5671 26.0684 24.4949 26.0798 24.4259 26.1023C23.9939 26.2418 23.4404 26.8583 23.4404 28.5008C23.4404 29.0138 23.0354 29.3085 22.7497 29.3085H21.2039C20.6774 29.3085 17.9347 29.124 15.5047 26.5613C12.5302 23.4225 9.85265 17.127 9.83015 17.0685C9.6614 16.6613 10.0102 16.443 10.3904 16.443H13.7992C14.2537 16.443 14.4022 16.7198 14.5057 16.965C14.6272 17.2508 15.0727 18.387 15.8039 19.665C16.9897 21.7485 17.7164 22.5945 18.2992 22.5945C18.4084 22.5932 18.5157 22.5654 18.6119 22.5135C19.3724 22.0905 19.2307 19.3793 19.1969 18.8168C19.1969 18.711 19.1947 17.604 18.8054 17.073C18.5264 16.6883 18.0517 16.542 17.7637 16.488C17.8802 16.3272 18.0338 16.1967 18.2114 16.1078C18.7334 15.8468 19.6739 15.8085 20.6077 15.8085H21.1274C22.1399 15.822 22.4009 15.8873 22.7677 15.9795C23.5102 16.1573 23.5259 16.6365 23.4607 18.2768C23.4404 18.7425 23.4202 19.269 23.4202 19.89C23.4202 20.025 23.4134 20.169 23.4134 20.322C23.3909 21.1568 23.3639 22.104 23.9534 22.4933C24.0303 22.5415 24.1191 22.5672 24.2099 22.5675C24.4147 22.5675 25.0312 22.5675 26.7007 19.7033C27.2155 18.7814 27.663 17.8233 28.0394 16.8368C28.0732 16.7783 28.1722 16.5983 28.2892 16.5285C28.3755 16.4845 28.4712 16.4621 28.5682 16.4633H32.5754C33.0119 16.4633 33.3112 16.5285 33.3674 16.6973C33.4664 16.965 33.3494 17.7818 31.5202 20.259L30.7034 21.3368C29.0452 23.5103 29.0452 23.6205 30.8069 25.2698Z" fill="#0752C2"/>
</g>
<defs>
<clipPath id="clip0_41_124">
<rect width="45" height="45" fill="white"/>
</clipPath>
</defs>
</svg>
