<svg width="43" height="43" viewBox="0 0 43 43" fill="none" xmlns="http://www.w3.org/2000/svg">
<circle cx="21.5" cy="21.5" r="21.5" fill="#36BF06"/>
<path d="M29.8333 13.395C28.7637 12.3146 27.4897 11.458 26.0856 10.8751C24.6814 10.2922 23.1753 9.99471 21.655 10C15.285 10 10.0933 15.1917 10.0933 21.5617C10.0933 23.6033 10.63 25.5867 11.6333 27.3367L10 33.3333L16.125 31.7233C17.8167 32.645 19.7183 33.135 21.655 33.135C28.025 33.135 33.2167 27.9433 33.2167 21.5733C33.2167 18.4817 32.015 15.5767 29.8333 13.395ZM21.655 31.175C19.9283 31.175 18.2367 30.7083 16.755 29.8333L16.405 29.6233L12.765 30.58L13.7333 27.0333L13.5 26.6717C12.5407 25.1398 12.0313 23.3691 12.03 21.5617C12.03 16.265 16.3467 11.9483 21.6433 11.9483C24.21 11.9483 26.625 12.9517 28.4333 14.7717C29.3287 15.663 30.0383 16.7231 30.521 17.8907C31.0036 19.0582 31.2497 20.31 31.245 21.5733C31.2683 26.87 26.9517 31.175 21.655 31.175ZM26.9283 23.9883C26.6367 23.8483 25.2133 23.1483 24.9567 23.0433C24.6883 22.95 24.5017 22.9033 24.3033 23.1833C24.105 23.475 23.5567 24.1283 23.3933 24.315C23.23 24.5133 23.055 24.5367 22.7633 24.385C22.4717 24.245 21.5383 23.93 20.4417 22.95C19.5783 22.18 19.0067 21.235 18.8317 20.9433C18.6683 20.6517 18.8083 20.5 18.96 20.3483C19.0883 20.22 19.2517 20.01 19.3917 19.8467C19.5317 19.6833 19.59 19.555 19.6833 19.3683C19.7767 19.17 19.73 19.0067 19.66 18.8667C19.59 18.7267 19.0067 17.3033 18.7733 16.72C18.54 16.16 18.295 16.23 18.12 16.2183H17.56C17.3617 16.2183 17.0583 16.2883 16.79 16.58C16.5333 16.8717 15.7867 17.5717 15.7867 18.995C15.7867 20.4183 16.825 21.795 16.965 21.9817C17.105 22.18 19.0067 25.0967 21.9 26.345C22.5883 26.6483 23.125 26.8233 23.545 26.9517C24.2333 27.1733 24.8633 27.1383 25.365 27.0683C25.925 26.9867 27.08 26.3683 27.3133 25.6917C27.5583 25.015 27.5583 24.4433 27.4767 24.315C27.395 24.1867 27.22 24.1283 26.9283 23.9883Z" fill="white"/>
</svg>
