<svg width="34" height="34" viewBox="0 0 34 34" fill="none" xmlns="http://www.w3.org/2000/svg">
<path fill-rule="evenodd" clip-rule="evenodd" d="M4.25 7.18502C4.25 7.7373 4.69772 8.18502 5.25 8.18502H7.39814L12.7523 21.2731C12.9338 21.7165 13.4042 21.969 13.874 21.875L25.0595 19.6379C25.4266 19.5645 25.722 19.2921 25.8249 18.9321L27.8117 11.9783C27.9942 11.3394 27.5145 10.7035 26.8502 10.7035H11.8055L9.56342 6.21929C9.39403 5.88051 9.04777 5.6665 8.66899 5.6665H5.25C4.69772 5.6665 4.25 6.11422 4.25 6.6665V7.18502ZM13.0648 25.8147C13.0648 27.2056 11.9373 28.3332 10.5463 28.3332C9.1554 28.3332 8.02782 27.2056 8.02782 25.8147C8.02782 24.4237 9.1554 23.2962 10.5463 23.2962C11.9373 23.2962 13.0648 24.4237 13.0648 25.8147ZM25.6573 25.8147C25.6573 27.2056 24.5298 28.3332 23.1388 28.3332C21.7479 28.3332 20.6203 27.2056 20.6203 25.8147C20.6203 24.4237 21.7479 23.2962 23.1388 23.2962C24.5298 23.2962 25.6573 24.4237 25.6573 25.8147Z" fill="white"/>
</svg>
