<svg width="34" height="34" viewBox="0 0 34 34" fill="none" xmlns="http://www.w3.org/2000/svg">
<path d="M31.875 29.75C31.875 29.75 34 29.75 34 27.625C34 25.5 31.875 19.125 23.375 19.125C14.875 19.125 12.75 25.5 12.75 27.625C12.75 29.75 14.875 29.75 14.875 29.75H31.875ZM14.9218 27.625C14.9061 27.6228 14.8905 27.62 14.875 27.6165C14.8771 27.0555 15.2299 25.4277 16.49 23.9615C17.663 22.5866 19.7243 21.25 23.375 21.25C27.0236 21.25 29.0849 22.5888 30.26 23.9615C31.5201 25.4277 31.8708 27.0576 31.875 27.6165L31.858 27.6208C31.8481 27.6224 31.8382 27.6238 31.8282 27.625H14.9218ZM23.375 14.875C24.5022 14.875 25.5832 14.4272 26.3802 13.6302C27.1772 12.8332 27.625 11.7522 27.625 10.625C27.625 9.49783 27.1772 8.41683 26.3802 7.6198C25.5832 6.82277 24.5022 6.375 23.375 6.375C22.2478 6.375 21.1668 6.82277 20.3698 7.6198C19.5728 8.41683 19.125 9.49783 19.125 10.625C19.125 11.7522 19.5728 12.8332 20.3698 13.6302C21.1668 14.4272 22.2478 14.875 23.375 14.875ZM29.75 10.625C29.75 11.4622 29.5851 12.2912 29.2647 13.0646C28.9444 13.8381 28.4748 14.5408 27.8828 15.1328C27.2908 15.7248 26.5881 16.1944 25.8146 16.5147C25.0412 16.8351 24.2122 17 23.375 17C22.5378 17 21.7088 16.8351 20.9354 16.5147C20.1619 16.1944 19.4592 15.7248 18.8672 15.1328C18.2752 14.5408 17.8056 13.8381 17.4853 13.0646C17.1649 12.2912 17 11.4622 17 10.625C17 8.93425 17.6716 7.31274 18.8672 6.11719C20.0627 4.92165 21.6842 4.25 23.375 4.25C25.0658 4.25 26.6873 4.92165 27.8828 6.11719C29.0784 7.31274 29.75 8.93425 29.75 10.625ZM14.739 19.72C13.889 19.4523 13.0127 19.2764 12.1252 19.1951C11.6266 19.1477 11.1259 19.1243 10.625 19.125C2.125 19.125 0 25.5 0 27.625C0 29.0424 0.707625 29.75 2.125 29.75H11.084C10.769 29.0866 10.6119 28.3593 10.625 27.625C10.625 25.4788 11.4261 23.2857 12.9412 21.454C13.4576 20.8292 14.059 20.2449 14.739 19.72ZM10.455 21.25C9.19733 23.1397 8.51793 25.3551 8.5 27.625H2.125C2.125 27.0725 2.4735 25.4363 3.74 23.9615C4.89813 22.61 6.9105 21.2925 10.455 21.2521V21.25ZM3.1875 11.6875C3.1875 9.99675 3.85915 8.37524 5.05469 7.17969C6.25024 5.98415 7.87175 5.3125 9.5625 5.3125C11.2533 5.3125 12.8748 5.98415 14.0703 7.17969C15.2659 8.37524 15.9375 9.99675 15.9375 11.6875C15.9375 13.3783 15.2659 14.9998 14.0703 16.1953C12.8748 17.3909 11.2533 18.0625 9.5625 18.0625C7.87175 18.0625 6.25024 17.3909 5.05469 16.1953C3.85915 14.9998 3.1875 13.3783 3.1875 11.6875ZM9.5625 7.4375C8.43533 7.4375 7.35433 7.88527 6.5573 8.6823C5.76027 9.47933 5.3125 10.5603 5.3125 11.6875C5.3125 12.8147 5.76027 13.8957 6.5573 14.6927C7.35433 15.4897 8.43533 15.9375 9.5625 15.9375C10.6897 15.9375 11.7707 15.4897 12.5677 14.6927C13.3647 13.8957 13.8125 12.8147 13.8125 11.6875C13.8125 10.5603 13.3647 9.47933 12.5677 8.6823C11.7707 7.88527 10.6897 7.4375 9.5625 7.4375Z" fill="white"/>
</svg>
