<svg width="32" height="32" viewBox="0 0 32 32" fill="none" xmlns="http://www.w3.org/2000/svg">
<path d="M16.0003 29.3332C8.63633 29.3332 2.66699 23.3638 2.66699 15.9998C2.66699 8.63584 8.63633 2.6665 16.0003 2.6665C23.3643 2.6665 29.3337 8.63584 29.3337 15.9998C29.3337 23.3638 23.3643 29.3332 16.0003 29.3332ZM16.0003 26.6665C18.8293 26.6665 21.5424 25.5427 23.5428 23.5423C25.5432 21.5419 26.667 18.8288 26.667 15.9998C26.667 13.1709 25.5432 10.4578 23.5428 8.45736C21.5424 6.45698 18.8293 5.33317 16.0003 5.33317C13.1713 5.33317 10.4582 6.45698 8.45785 8.45736C6.45747 10.4578 5.33366 13.1709 5.33366 15.9998C5.33366 18.8288 6.45747 21.5419 8.45785 23.5423C10.4582 25.5427 13.1713 26.6665 16.0003 26.6665ZM14.671 21.3332L9.01366 15.6758L10.899 13.7905L14.671 17.5625L22.2123 10.0198L24.099 11.9052L14.671 21.3332Z" fill="#0185D5"/>
</svg>
