<svg width="10" height="11" viewBox="0 0 10 11" fill="none" xmlns="http://www.w3.org/2000/svg">
<path d="M9.61548 0.825855C9.52255 0.765878 9.41866 0.724696 9.30972 0.70466C9.20079 0.684624 9.08896 0.686128 8.98061 0.709086C8.87226 0.732043 8.76952 0.776005 8.67826 0.838458C8.587 0.900912 8.50901 0.980634 8.44874 1.07307L3.7216 8.31925L1.41624 6.19945C1.3349 6.12466 1.23955 6.06654 1.13562 6.02839C1.0317 5.99025 0.921237 5.97284 0.810545 5.97715C0.586992 5.98585 0.376073 6.08252 0.224188 6.24588C0.0723025 6.40923 -0.00810761 6.6259 0.00064675 6.84822C0.00940111 7.07054 0.106603 7.28029 0.270869 7.43134L3.29781 10.2145C3.29781 10.2145 3.38471 10.2889 3.42492 10.3149C3.51786 10.3749 3.62177 10.4161 3.73074 10.4362C3.8397 10.4562 3.95157 10.4547 4.05995 10.4318C4.16833 10.4088 4.2711 10.3648 4.36238 10.3024C4.45366 10.2399 4.53167 10.1601 4.59194 10.0677L9.86407 1.98615C9.92438 1.89374 9.96579 1.79042 9.98594 1.68208C10.0061 1.57375 10.0046 1.46254 9.98149 1.35479C9.9584 1.24704 9.9142 1.14487 9.85139 1.05411C9.78859 0.963354 9.70843 0.885792 9.61548 0.825855Z" fill="white"/>
</svg>
