<svg width="32" height="32" viewBox="0 0 32 32" fill="none" xmlns="http://www.w3.org/2000/svg">
<path d="M16 4.13346L9.4 10.7335C8.09481 12.0388 7.20599 13.7018 6.84594 15.5123C6.48589 17.3228 6.67077 19.1993 7.37722 20.9047C8.08367 22.6101 9.27994 24.0677 10.8148 25.0932C12.3496 26.1188 14.1541 26.6661 16 26.6661C17.8459 26.6661 19.6504 26.1188 21.1852 25.0932C22.7201 24.0677 23.9163 22.6101 24.6228 20.9047C25.3292 19.1993 25.5141 17.3228 25.1541 15.5123C24.794 13.7018 23.9052 12.0388 22.6 10.7335L16 4.13346ZM16 0.362793L24.4853 8.84813C26.1636 10.5264 27.3064 12.6646 27.7694 14.9923C28.2324 17.3201 27.9948 19.7329 27.0865 21.9256C26.1783 24.1183 24.6402 25.9924 22.6668 27.311C20.6934 28.6296 18.3734 29.3334 16 29.3334C13.6266 29.3334 11.3066 28.6296 9.33318 27.311C7.35979 25.9924 5.82172 24.1183 4.91346 21.9256C4.00521 19.7329 3.76756 17.3201 4.23057 14.9923C4.69358 12.6646 5.83646 10.5264 7.51467 8.84813L16 0.362793ZM9.33334 17.3335H22.6667C22.6667 19.1016 21.9643 20.7973 20.714 22.0475C19.4638 23.2977 17.7681 24.0001 16 24.0001C14.2319 24.0001 12.5362 23.2977 11.286 22.0475C10.0357 20.7973 9.33334 19.1016 9.33334 17.3335Z" fill="#0185D5"/>
</svg>
