<svg width="32" height="32" viewBox="0 0 32 32" fill="none" xmlns="http://www.w3.org/2000/svg">
<path d="M16.0003 2.6665C23.3643 2.6665 29.3337 8.63584 29.3337 15.9998C29.3337 23.3638 23.3643 29.3332 16.0003 29.3332C8.63633 29.3332 2.66699 23.3638 2.66699 15.9998C2.66699 8.63584 8.63633 2.6665 16.0003 2.6665ZM16.0003 5.33317C10.1097 5.33317 5.33366 10.1092 5.33366 15.9998C5.33366 21.8905 10.1097 26.6665 16.0003 26.6665C21.891 26.6665 26.667 21.8905 26.667 15.9998C26.667 10.1092 21.891 5.33317 16.0003 5.33317ZM21.111 9.7825C21.427 9.56117 21.8563 9.5985 22.1283 9.87184C22.4003 10.1438 22.435 10.5732 22.2123 10.8852C19.3057 14.9465 17.7057 17.1225 17.415 17.4145C16.6337 18.1945 15.367 18.1945 14.5857 17.4145C13.8057 16.6332 13.8057 15.3665 14.5857 14.5852C15.0843 14.0878 17.259 12.4865 21.111 9.7825ZM23.3337 14.6665C24.0697 14.6665 24.667 15.2638 24.667 15.9998C24.667 16.7358 24.0697 17.3332 23.3337 17.3332C22.5977 17.3332 22.0003 16.7358 22.0003 15.9998C22.0003 15.2638 22.5977 14.6665 23.3337 14.6665ZM8.66699 14.6665C9.40299 14.6665 10.0003 15.2638 10.0003 15.9998C10.0003 16.7358 9.40299 17.3332 8.66699 17.3332C7.93099 17.3332 7.33366 16.7358 7.33366 15.9998C7.33366 15.2638 7.93099 14.6665 8.66699 14.6665ZM11.7577 9.87184C12.2777 10.3918 12.2777 11.2358 11.7577 11.7572C11.2377 12.2772 10.3923 12.2772 9.87232 11.7572C9.35232 11.2372 9.35232 10.3918 9.87232 9.87184C10.3923 9.35184 11.2363 9.35184 11.7577 9.87184ZM16.0003 7.33317C16.7363 7.33317 17.3337 7.9305 17.3337 8.6665C17.3337 9.4025 16.7363 9.99984 16.0003 9.99984C15.2643 9.99984 14.667 9.4025 14.667 8.6665C14.667 7.9305 15.2643 7.33317 16.0003 7.33317Z" fill="#0185D5"/>
</svg>
