<svg width="100" height="92" viewBox="0 0 100 92" fill="none" xmlns="http://www.w3.org/2000/svg">
<path id="Vector" d="M50.5 77.75L50 78.25L49.45 77.75C25.7 56.2 10 41.95 10 27.5C10 17.5 17.5 10 27.5 10C35.2 10 42.7 15 45.35 21.8H54.65C57.3 15 64.8 10 72.5 10C82.5 10 90 17.5 90 27.5C90 41.95 74.3 56.2 50.5 77.75ZM72.5 0C63.8 0 55.45 4.05 50 10.4C44.55 4.05 36.2 0 27.5 0C12.1 0 0 12.05 0 27.5C0 46.35 17 61.8 42.75 85.15L50 91.75L57.25 85.15C83 61.8 100 46.35 100 27.5C100 12.05 87.9 0 72.5 0Z" fill="white"/>
</svg>
