<svg width="24" height="24" viewBox="0 0 24 24" fill="none" xmlns="http://www.w3.org/2000/svg">
<g id="mingcute:wallet-line" clip-path="url(#clip0_197_7709)">
<g id="Group">
<path id="Vector" d="M19 4C19.5304 4 20.0391 4.21071 20.4142 4.58579C20.7893 4.96086 21 5.46957 21 6V8.268C21.304 8.44353 21.5565 8.696 21.732 9.00003C21.9076 9.30406 22 9.64894 22 10V14C22 14.3511 21.9076 14.6959 21.732 15C21.5565 15.304 21.304 15.5565 21 15.732V18C21 18.5304 20.7893 19.0391 20.4142 19.4142C20.0391 19.7893 19.5304 20 19 20H5C4.46957 20 3.96086 19.7893 3.58579 19.4142C3.21071 19.0391 3 18.5304 3 18V6C3 5.46957 3.21071 4.96086 3.58579 4.58579C3.96086 4.21071 4.46957 4 5 4H19ZM19 6H5V18H19V16H15C13.9564 16 12.9542 15.5922 12.2071 14.8636C11.46 14.135 11.0273 13.1433 11.0012 12.1C10.9751 11.0568 11.3577 10.0447 12.0674 9.27963C12.7772 8.51457 13.7578 8.05716 14.8 8.005L15 8H19V6ZM20 10H15C14.4696 10 13.9609 10.2107 13.5858 10.5858C13.2107 10.9609 13 11.4696 13 12C13 12.5304 13.2107 13.0391 13.5858 13.4142C13.9609 13.7893 14.4696 14 15 14H20V10ZM16 11C16.2652 11 16.5196 11.1054 16.7071 11.2929C16.8946 11.4804 17 11.7348 17 12C17 12.2652 16.8946 12.5196 16.7071 12.7071C16.5196 12.8946 16.2652 13 16 13C15.7348 13 15.4804 12.8946 15.2929 12.7071C15.1054 12.5196 15 12.2652 15 12C15 11.7348 15.1054 11.4804 15.2929 11.2929C15.4804 11.1054 15.7348 11 16 11Z" fill="white"/>
</g>
</g>
<defs>
<clipPath id="clip0_197_7709">
<rect width="24" height="24" fill="white"/>
</clipPath>
</defs>
</svg>
