<svg width="100" height="100" viewBox="0 0 100 100" fill="none" xmlns="http://www.w3.org/2000/svg">
<g id="ph:shopping-bag">
<path id="Vector" d="M84.375 15.625H15.625C13.9674 15.625 12.3777 16.2835 11.2056 17.4556C10.0335 18.6277 9.375 20.2174 9.375 21.875V78.125C9.375 79.7826 10.0335 81.3723 11.2056 82.5444C12.3777 83.7165 13.9674 84.375 15.625 84.375H84.375C86.0326 84.375 87.6223 83.7165 88.7944 82.5444C89.9665 81.3723 90.625 79.7826 90.625 78.125V21.875C90.625 20.2174 89.9665 18.6277 88.7944 17.4556C87.6223 16.2835 86.0326 15.625 84.375 15.625ZM84.375 78.125H15.625V21.875H84.375V78.125ZM68.75 34.375C68.75 39.3478 66.7746 44.1169 63.2583 47.6333C59.7419 51.1496 54.9728 53.125 50 53.125C45.0272 53.125 40.2581 51.1496 36.7417 47.6333C33.2254 44.1169 31.25 39.3478 31.25 34.375C31.25 33.5462 31.5792 32.7513 32.1653 32.1653C32.7513 31.5792 33.5462 31.25 34.375 31.25C35.2038 31.25 35.9987 31.5792 36.5847 32.1653C37.1708 32.7513 37.5 33.5462 37.5 34.375C37.5 37.6902 38.817 40.8696 41.1612 43.2138C43.5054 45.558 46.6848 46.875 50 46.875C53.3152 46.875 56.4946 45.558 58.8388 43.2138C61.183 40.8696 62.5 37.6902 62.5 34.375C62.5 33.5462 62.8292 32.7513 63.4153 32.1653C64.0013 31.5792 64.7962 31.25 65.625 31.25C66.4538 31.25 67.2487 31.5792 67.8347 32.1653C68.4208 32.7513 68.75 33.5462 68.75 34.375Z" fill="white"/>
</g>
</svg>
