<svg width="34" height="34" viewBox="0 0 34 34" fill="none" xmlns="http://www.w3.org/2000/svg">
<g clip-path="url(#clip0_1_5450)">
<path d="M33.9999 10.6415C33.9999 9.46795 33.0485 8.51648 31.875 8.51648H28.2476C29.1863 7.59051 29.7872 6.37664 29.7872 4.88167C29.7872 3.04088 28.73 1.04126 25.7624 1.04126C21.8577 1.04126 18.5959 5.19882 17.0632 7.52942C15.5295 5.19935 12.1678 1.04179 8.26359 1.04179C5.29603 1.04179 4.23884 3.04142 4.23884 4.8822C4.23884 6.3766 4.85616 7.59104 5.814 8.51701H2.125C0.951469 8.51701 0 9.46848 0 10.642V17.0027H2.14359V30.8338C2.14359 32.0073 3.09503 32.9588 4.26859 32.9588H29.758C30.9315 32.9588 31.883 32.0073 31.883 30.8338V17.0021H34V10.6415H33.9999ZM25.7624 3.16679C27.0762 3.16679 27.6622 3.71879 27.6622 4.88223C27.6622 7.24257 25.0277 8.51595 22.55 8.51595H18.9529C20.4627 6.27354 23.12 3.16679 25.7624 3.16679ZM8.26356 3.16682C10.9065 3.16682 13.6642 6.27357 15.174 8.51545H11.5759C9.09812 8.51545 6.36378 7.20911 6.36378 4.84876C6.36378 3.68586 6.94975 3.16682 8.26356 3.16682ZM31.875 14.8771H18.0625V10.6415H31.875V14.8771ZM2.12497 10.6415H15.9375V14.8771H2.12497V10.6415ZM4.26856 17.0021H15.9375V30.8332H4.26856V17.0021ZM29.7585 30.8332H18.0625V17.0021H29.7585V30.8332Z" fill="white"/>
</g>
<defs>
<clipPath id="clip0_1_5450">
<rect width="34" height="34" fill="white"/>
</clipPath>
</defs>
</svg>
