<svg width="31" height="38" viewBox="0 0 31 38" fill="none" xmlns="http://www.w3.org/2000/svg">
<path d="M22.3459 10.7L16.4043 15.3C16.2751 15.4 16.1352 15.4706 15.9845 15.512C15.8338 15.5533 15.6723 15.5743 15.5001 15.575C15.3279 15.575 15.1664 15.554 15.0157 15.512C14.865 15.47 14.7251 15.3993 14.5959 15.3L8.65428 10.7C8.41747 10.5166 8.29907 10.2833 8.29907 9.99995C8.29907 9.71662 8.41747 9.48328 8.65428 9.29995C8.89109 9.11662 9.19247 9.02495 9.55845 9.02495C9.92442 9.02495 10.2258 9.11662 10.4626 9.29995L15.5001 13.2L20.5376 9.29995C20.7744 9.11662 21.0758 9.02495 21.4418 9.02495C21.8078 9.02495 22.1091 9.11662 22.3459 9.29995C22.5828 9.48328 22.7012 9.71662 22.7012 9.99995C22.7012 10.2833 22.5828 10.5166 22.3459 10.7Z" fill="#818080"/>
<path d="M22.3459 17.7L16.4043 22.3C16.2751 22.4 16.1352 22.4706 15.9845 22.512C15.8338 22.5533 15.6723 22.5743 15.5001 22.575C15.3279 22.575 15.1664 22.554 15.0157 22.512C14.865 22.47 14.7251 22.3993 14.5959 22.3L8.65428 17.7C8.41747 17.5166 8.29907 17.2833 8.29907 17C8.29907 16.7166 8.41747 16.4833 8.65428 16.3C8.89109 16.1166 9.19247 16.025 9.55845 16.025C9.92442 16.025 10.2258 16.1166 10.4626 16.3L15.5001 20.2L20.5376 16.3C20.7744 16.1166 21.0758 16.025 21.4418 16.025C21.8078 16.025 22.1091 16.1166 22.3459 16.3C22.5828 16.4833 22.7012 16.7166 22.7012 17C22.7012 17.2833 22.5828 17.5166 22.3459 17.7Z" fill="#818080"/>
<path d="M22.3459 24.7L16.4043 29.3C16.2751 29.4 16.1352 29.4706 15.9845 29.512C15.8338 29.5533 15.6723 29.5743 15.5001 29.575C15.3279 29.575 15.1664 29.554 15.0157 29.512C14.865 29.47 14.7251 29.3993 14.5959 29.3L8.65428 24.7C8.41747 24.5166 8.29907 24.2833 8.29907 24C8.29907 23.7166 8.41747 23.4833 8.65428 23.3C8.89109 23.1166 9.19247 23.025 9.55845 23.025C9.92442 23.025 10.2258 23.1166 10.4626 23.3L15.5001 27.2L20.5376 23.3C20.7744 23.1166 21.0758 23.025 21.4418 23.025C21.8078 23.025 22.1091 23.1166 22.3459 23.3C22.5828 23.4833 22.7012 23.7166 22.7012 24C22.7012 24.2833 22.5828 24.5166 22.3459 24.7Z" fill="#818080"/>
</svg>
