<svg width="32" height="32" viewBox="0 0 32 32" fill="none" xmlns="http://www.w3.org/2000/svg">
<path d="M2.66699 16.0001C2.66699 14.8467 2.81366 13.7294 3.08833 12.6614C3.82495 12.7001 4.55793 12.5344 5.20625 12.1826C5.85456 11.8307 6.39297 11.3065 6.76193 10.6677C7.1309 10.029 7.31607 9.3007 7.29696 8.56331C7.27785 7.82592 7.05521 7.10817 6.65366 6.48941C8.26558 4.90351 10.2547 3.75407 12.4337 3.14941C12.7683 3.80738 13.2785 4.3599 13.9078 4.74583C14.537 5.13175 15.2608 5.33602 15.999 5.33602C16.7372 5.33602 17.461 5.13175 18.0902 4.74583C18.7195 4.3599 19.2297 3.80738 19.5643 3.14941C21.7433 3.75407 23.7324 4.90351 25.3443 6.48941C24.9423 7.10829 24.7194 7.82631 24.7001 8.56403C24.6809 9.30176 24.8661 10.0304 25.2352 10.6694C25.6044 11.3084 26.1432 11.8328 26.7919 12.1846C27.4406 12.5364 28.1741 12.7019 28.911 12.6627C29.1857 13.7294 29.3323 14.8467 29.3323 16.0001C29.3323 17.1534 29.1857 18.2707 28.911 19.3387C28.1743 19.2998 27.4411 19.4653 26.7926 19.817C26.1441 20.1688 25.6055 20.693 25.2363 21.3318C24.8672 21.9706 24.6819 22.699 24.701 23.4365C24.72 24.174 24.9427 24.8919 25.3443 25.5107C23.7324 27.0967 21.7433 28.2461 19.5643 28.8507C19.2297 28.1928 18.7195 27.6403 18.0902 27.2543C17.461 26.8684 16.7372 26.6641 15.999 26.6641C15.2608 26.6641 14.537 26.8684 13.9078 27.2543C13.2785 27.6403 12.7683 28.1928 12.4337 28.8507C10.2547 28.2461 8.26558 27.0967 6.65366 25.5107C7.05567 24.8919 7.27863 24.1739 7.29788 23.4361C7.31714 22.6984 7.13192 21.9697 6.76274 21.3307C6.39356 20.6917 5.8548 20.1673 5.20607 19.8155C4.55734 19.4637 3.82393 19.2983 3.08699 19.3374C2.81366 18.2721 2.66699 17.1547 2.66699 16.0001ZM9.07233 20.0001C9.91233 21.4547 10.1523 23.1281 9.82433 24.6987C10.3683 25.0854 10.947 25.4201 11.5537 25.6987C12.7759 24.6039 14.3594 23.9989 16.0003 24.0001C17.6803 24.0001 19.251 24.6281 20.447 25.6987C21.0537 25.4201 21.6323 25.0854 22.1763 24.6987C21.8396 23.0934 22.1074 21.4202 22.9283 20.0001C23.7478 18.5792 25.063 17.511 26.6217 17.0001C26.6833 16.3348 26.6833 15.6653 26.6217 15.0001C25.0625 14.4895 23.7468 13.4212 22.927 12.0001C22.106 10.58 21.8382 8.90679 22.175 7.30141C21.6311 6.91464 21.0522 6.57984 20.4457 6.30141C19.2238 7.39599 17.6408 8.00089 16.0003 8.00008C14.3594 8.00122 12.7759 7.3963 11.5537 6.30141C10.9472 6.57985 10.3682 6.91465 9.82433 7.30141C10.1611 8.90679 9.89329 10.58 9.07233 12.0001C8.25282 13.4209 6.93764 14.4892 5.37899 15.0001C5.31733 15.6653 5.31733 16.3348 5.37899 17.0001C6.93813 17.5107 8.25383 18.579 9.07366 20.0001H9.07233ZM16.0003 20.0001C14.9395 20.0001 13.922 19.5787 13.1719 18.8285C12.4218 18.0784 12.0003 17.0609 12.0003 16.0001C12.0003 14.9392 12.4218 13.9218 13.1719 13.1717C13.922 12.4215 14.9395 12.0001 16.0003 12.0001C17.0612 12.0001 18.0786 12.4215 18.8288 13.1717C19.5789 13.9218 20.0003 14.9392 20.0003 16.0001C20.0003 17.0609 19.5789 18.0784 18.8288 18.8285C18.0786 19.5787 17.0612 20.0001 16.0003 20.0001ZM16.0003 17.3334C16.3539 17.3334 16.6931 17.1929 16.9431 16.9429C17.1932 16.6928 17.3337 16.3537 17.3337 16.0001C17.3337 15.6465 17.1932 15.3073 16.9431 15.0573C16.6931 14.8072 16.3539 14.6667 16.0003 14.6667C15.6467 14.6667 15.3076 14.8072 15.0575 15.0573C14.8075 15.3073 14.667 15.6465 14.667 16.0001C14.667 16.3537 14.8075 16.6928 15.0575 16.9429C15.3076 17.1929 15.6467 17.3334 16.0003 17.3334Z" fill="#0185D5"/>
</svg>
