<svg width="45" height="45" viewBox="0 0 45 45" fill="none" xmlns="http://www.w3.org/2000/svg">
<g clip-path="url(#clip0_46_6379)">
<path d="M22.5 0C16.534 0 10.807 2.37199 6.5918 6.59004C2.37221 10.8098 0.00116884 16.5325 0 22.5C0 28.465 2.37305 34.1919 6.5918 38.41C10.807 42.628 16.534 45 22.5 45C28.466 45 34.193 42.628 38.4082 38.41C42.627 34.1919 45 28.465 45 22.5C45 16.535 42.627 10.8081 38.4082 6.59004C34.193 2.37199 28.466 0 22.5 0Z" fill="url(#paint0_linear_46_6379)"/>
<path d="M10.1843 22.2626C16.7445 19.4051 21.1179 17.5211 23.3047 16.6109C29.5554 14.0118 30.8527 13.5603 31.7 13.5451C31.8863 13.5421 32.3011 13.5881 32.5718 13.807C32.7968 13.9915 32.8601 14.2411 32.8918 14.4164C32.9199 14.5915 32.9586 14.9905 32.9269 15.302C32.5894 18.8598 31.1234 27.4935 30.3781 31.4784C30.0652 33.1645 29.4429 33.7298 28.8418 33.785C27.5339 33.9053 26.5425 32.9216 25.2769 32.0923C23.2976 30.7939 22.1797 29.986 20.2566 28.7194C18.0347 27.2555 19.4761 26.4507 20.7418 25.1359C21.0722 24.7917 26.8308 19.5552 26.9398 19.0802C26.9539 19.0208 26.9679 18.7993 26.8343 18.6826C26.7043 18.5655 26.5109 18.6056 26.3703 18.6373C26.1699 18.6823 23.0093 20.7734 16.8781 24.9102C15.9816 25.5268 15.1695 25.8274 14.4382 25.8116C13.6367 25.7944 12.0898 25.3574 10.9402 24.984C9.53395 24.5259 8.41247 24.2837 8.5109 23.5057C8.56012 23.1007 9.11911 22.6862 10.1843 22.2626Z" fill="white"/>
</g>
<defs>
<linearGradient id="paint0_linear_46_6379" x1="2250" y1="0" x2="2250" y2="4500" gradientUnits="userSpaceOnUse">
<stop stop-color="#2AABEE"/>
<stop offset="1" stop-color="#229ED9"/>
</linearGradient>
<clipPath id="clip0_46_6379">
<rect width="45" height="45" fill="white"/>
</clipPath>
</defs>
</svg>
