<svg width="17" height="19" viewBox="0 0 17 19" fill="none" xmlns="http://www.w3.org/2000/svg">
<path d="M14.6138 18.875C14.6138 18.875 16.1763 18.875 16.1763 17.3125C16.1763 15.75 14.6138 11.0625 8.36377 11.0625C2.11377 11.0625 0.55127 15.75 0.55127 17.3125C0.55127 18.875 2.11377 18.875 2.11377 18.875H14.6138ZM2.14814 17.3125C2.1366 17.3109 2.12513 17.3088 2.11377 17.3062C2.11533 16.8938 2.37471 15.6969 3.30127 14.6187C4.16377 13.6078 5.67939 12.625 8.36377 12.625C11.0466 12.625 12.5622 13.6094 13.4263 14.6187C14.3528 15.6969 14.6106 16.8953 14.6138 17.3062L14.6013 17.3094C14.594 17.3106 14.5867 17.3116 14.5794 17.3125H2.14814ZM8.36377 7.9375C9.19257 7.9375 9.98743 7.60826 10.5735 7.02221C11.1595 6.43616 11.4888 5.6413 11.4888 4.8125C11.4888 3.9837 11.1595 3.18884 10.5735 2.60279C9.98743 2.01674 9.19257 1.6875 8.36377 1.6875C7.53497 1.6875 6.74011 2.01674 6.15406 2.60279C5.56801 3.18884 5.23877 3.9837 5.23877 4.8125C5.23877 5.6413 5.56801 6.43616 6.15406 7.02221C6.74011 7.60826 7.53497 7.9375 8.36377 7.9375ZM13.0513 4.8125C13.0513 5.42807 12.93 6.03761 12.6945 6.60633C12.4589 7.17504 12.1136 7.69179 11.6783 8.12706C11.2431 8.56234 10.7263 8.90762 10.1576 9.14319C9.58888 9.37875 8.97934 9.5 8.36377 9.5C7.7482 9.5 7.13865 9.37875 6.56994 9.14319C6.00123 8.90762 5.48448 8.56234 5.04921 8.12706C4.61393 7.69179 4.26865 7.17504 4.03308 6.60633C3.79751 6.03761 3.67627 5.42807 3.67627 4.8125C3.67627 3.5693 4.17013 2.37701 5.04921 1.49794C5.92828 0.61886 7.12057 0.125 8.36377 0.125C9.60697 0.125 10.7993 0.61886 11.6783 1.49794C12.5574 2.37701 13.0513 3.5693 13.0513 4.8125Z" fill="white"/>
</svg>
