<svg width="45" height="45" viewBox="0 0 45 45" fill="none" xmlns="http://www.w3.org/2000/svg">
<g clip-path="url(#clip0_46_6382)">
<circle cx="22.5" cy="23.5" r="18.5" fill="white"/>
<path d="M22.5004 0.899902C10.5709 0.899902 0.900391 10.5704 0.900391 22.4999C0.900391 34.4294 10.5709 44.0999 22.5004 44.0999C34.4299 44.0999 44.1004 34.4294 44.1004 22.4999C44.1004 10.5704 34.4299 0.899902 22.5004 0.899902ZM30.8074 25.2697C30.8074 25.2697 32.7176 27.1552 33.1879 28.0304C33.2014 28.0484 33.2081 28.0664 33.2126 28.0754C33.4039 28.3972 33.4489 28.6469 33.3544 28.8337C33.1969 29.1442 32.6569 29.2972 32.4724 29.3107H29.0974C28.8634 29.3107 28.3729 29.2499 27.7789 28.8404C27.3221 28.5209 26.8721 27.9967 26.4334 27.4859C25.7786 26.7254 25.2116 26.0684 24.6401 26.0684C24.5676 26.0683 24.4954 26.0797 24.4264 26.1022C23.9944 26.2417 23.4409 26.8582 23.4409 28.5007C23.4409 29.0137 23.0359 29.3084 22.7501 29.3084H21.2044C20.6779 29.3084 17.9351 29.1239 15.5051 26.5612C12.5306 23.4224 9.85314 17.1269 9.83064 17.0684C9.66189 16.6612 10.0106 16.4429 10.3909 16.4429H13.7996C14.2541 16.4429 14.4026 16.7197 14.5061 16.9649C14.6276 17.2507 15.0731 18.3869 15.8044 19.6649C16.9901 21.7484 17.7169 22.5944 18.2996 22.5944C18.4089 22.5931 18.5162 22.5653 18.6124 22.5134C19.3729 22.0904 19.2311 19.3792 19.1974 18.8167C19.1974 18.7109 19.1951 17.6039 18.8059 17.0729C18.5269 16.6882 18.0521 16.5419 17.7641 16.4879C17.8807 16.3271 18.0343 16.1966 18.2119 16.1077C18.7339 15.8467 19.6744 15.8084 20.6081 15.8084H21.1279C22.1404 15.8219 22.4014 15.8872 22.7681 15.9794C23.5106 16.1572 23.5264 16.6364 23.4611 18.2767C23.4409 18.7424 23.4206 19.2689 23.4206 19.8899C23.4206 20.0249 23.4139 20.1689 23.4139 20.3219C23.3914 21.1567 23.3644 22.1039 23.9539 22.4932C24.0308 22.5414 24.1196 22.5671 24.2104 22.5674C24.4151 22.5674 25.0316 22.5674 26.7011 19.7032C27.216 18.7812 27.6634 17.8232 28.0399 16.8367C28.0736 16.7782 28.1726 16.5982 28.2896 16.5284C28.376 16.4844 28.4717 16.462 28.5686 16.4632H32.5759C33.0124 16.4632 33.3116 16.5284 33.3679 16.6972C33.4669 16.9649 33.3499 17.7817 31.5206 20.2589L30.7039 21.3367C29.0456 23.5102 29.0456 23.6204 30.8074 25.2697Z" fill="#0752C2"/>
</g>
<defs>
<clipPath id="clip0_46_6382">
<rect width="45" height="45" fill="white"/>
</clipPath>
</defs>
</svg>
